<?xml version="1.0" encoding="utf-8"?>
<!-- Generator: Adobe Illustrator 27.0.0, SVG Export Plug-In . SVG Version: 6.00 Build 0)  -->
<svg version="1.1" id="Layer_1" xmlns="http://www.w3.org/2000/svg" xmlns:xlink="http://www.w3.org/1999/xlink" x="0px" y="0px"
	 viewBox="0 0 512 512" style="enable-background:new 0 0 530 530;" xml:space="preserve">
<style type="text/css">
	.st0{fill:#FFFFFF;}
</style>
<g>
	<path class="st0" d="M268.62,1.47c3.4,1.16,6.89,2.13,10.2,3.5c23.61,9.82,37.88,27.31,40.51,52.79
		c2.78,26.97-8.26,47.98-31.43,61.94c-9.96,6-15.76,13.59-16.43,25.36c-0.49,8.6-8.31,14.92-16.71,14.37
		c-8.55-0.55-15.35-7.48-14.96-16.19c1.01-22.17,11.39-38.7,30.81-49.53c18.4-10.27,23.16-33.07,10.26-48.92
		c-9.47-11.64-25.78-15.1-39.19-8.32c-13.3,6.73-20.16,22.07-16.25,36.59c1,3.72,1.98,7.39,1.01,11.25
		c-1.68,6.75-7.45,11.62-14.19,12.01c-7.71,0.45-13.75-3.64-16.39-11.09c-9.33-26.35,0.61-56.72,23.59-72.87
		c7.44-5.23,15.87-7.95,24.26-10.9C252.01,1.47,260.32,1.47,268.62,1.47z"/>
	<path class="st0" d="M271.61,192.97c-0.03,8.59-7.35,15.85-15.95,15.81c-8.7-0.04-15.89-7.17-15.93-15.82
		c-0.05-8.89,7.31-16.18,16.19-16.04C264.6,177.05,271.64,184.25,271.61,192.97z"/>
	<path class="st0" d="M502.48,241.64c-15.2-15.11-30.65-29.98-45.33-45.57c-10.66-11.31-22.65-19.82-37.03-26
		c-31.11-13.37-61.74-27.85-92.54-41.93c-4.72-2.16-9.49-3.09-14.45-1.24c-6.18,2.31-9.95,7.91-10.13,14.65
		c-0.17,6.32,3.85,12.22,10.3,15.14c23.89,10.82,47.79,21.63,71.66,32.5c2.28,1.04,4.83,1.75,6.89,3.96
		c-1.16,0.59-1.88,0.99-2.62,1.33c-43.39,19.68-86.79,39.34-130.16,59.06c-2.51,1.14-4.66,0.95-7.1-0.17
		c-42.75-19.49-85.52-38.92-128.28-58.39c-1.14-0.52-2.6-0.72-3.03-2.55c0.95-0.56,1.87-1.22,2.89-1.68
		c11.63-5.3,23.28-10.56,34.92-15.85c13-5.91,26.03-11.73,38.96-17.79c7.62-3.57,11.09-11.27,8.97-18.99
		c-2.05-7.46-8.19-11.5-16.68-11.2c-3.83,0.14-7,1.98-10.3,3.47c-28.73,13.02-57.5,25.95-86.11,39.23
		c-9.85,4.57-20.34,7.96-28.35,16.13C45.66,205.44,26.21,225,6.41,244.18c-7.29,7.07-7.39,22.6,5.12,27.56
		c10.79,4.28,21.2,9.52,31.78,14.33c46.85,21.29,93.69,42.61,140.57,63.85c9.21,4.17,14.78,3.01,21.98-4.3
		c9.79-9.94,19.46-19.99,29.24-29.93c1.19-1.2,2.03-3.07,4.4-3.12c0.08,1.4,0.22,2.7,0.22,3.99c0.01,49.33,0.01,98.67,0.01,148
		c0,0.66-0.04,1.33-0.01,1.99c0.15,2.99-1.17,3.48-3.63,2.2c-0.88-0.46-1.84-0.76-2.75-1.17c-44.21-19.88-88.4-39.79-132.65-59.59
		c-3.36-1.5-4.62-3.42-4.58-7.14c0.19-16.28,0.19-32.56,0.02-48.83c-0.09-8.75-7.03-15.48-15.56-15.63
		c-8.53-0.16-16.09,6.43-16.17,14.97c-0.2,20.43-0.09,40.86,0.12,61.29c0.08,8.2,2.41,15.09,10.93,18.93
		c48.59,21.88,97.08,43.97,145.59,66.03c10.25,4.66,20.43,9.46,30.65,14.19c2.66,0,5.32,0,7.97,0c4.2-1.51,8.79-1.54,12.91-3.41
		c30.35-13.78,60.65-27.66,90.98-41.48c23.54-10.73,47.04-21.55,70.66-32.07c10.32-4.6,15.34-11.21,15.2-22.89
		c-0.41-34.85-0.15-69.7-0.15-104.56c0-1.99,0.04-3.98,0.05-5.97c0.02-2.81,1.31-4.68,3.87-5.8c15.18-6.67,30.05-14.05,45.34-20.46
		c6.88-2.89,11.56-6.83,12.3-14.53c0-2.66,0-5.32,0-7.97C508.93,248.3,505.79,244.94,502.48,241.64z M225.15,280.58
		c-11.38,11.4-22.83,22.74-34.13,34.22c-2.04,2.07-3.67,1.93-6.1,0.82c-38.32-17.58-76.67-35.07-115.03-52.58
		c-6.95-3.17-13.84-6.47-20.89-9.4c-3.81-1.58-3.32-2.9-0.81-5.43c10.41-10.48,20.84-20.96,30.87-31.81
		c3.46-3.74,6.18-3.94,10.63-1.9c40.72,18.72,81.54,37.2,122.34,55.74c4.23,1.92,8.49,3.79,12.7,5.75c0.98,0.45,2.25,0.77,2.34,2.44
		C226.46,279.12,225.84,279.88,225.15,280.58z M410.85,407.95c-45.06,20.36-90.08,40.84-135.08,61.34c-2.66,1.21-4.2,1.69-4.2-2.24
		c0.08-50.81,0.08-101.62,0.11-152.42c0-0.32,0.16-0.64,0.35-1.32c2.3,0.51,3.24,2.21,4.5,3.43c10.26,9.93,20.55,19.83,30.67,29.89
		c6.06,6.02,12.62,7.18,20.39,3.61c26.84-12.32,53.76-24.49,80.64-36.74c6.92-3.15,6.91-3.19,6.91,4.47
		c0,27.56-0.06,55.13,0.07,82.69C415.23,404.26,414.31,406.39,410.85,407.95z M462.72,253.74c-19.02,8.67-38.05,17.32-57.07,25.97
		c-25.67,11.67-51.39,23.25-76.98,35.09c-4.22,1.95-6.88,1.72-10.23-1.8c-10.3-10.82-20.97-21.28-31.64-31.74
		c-2.67-2.62-3.32-3.92,0.79-5.77c45.67-20.58,91.29-41.29,136.87-62.08c2.66-1.21,4.16-0.62,6.03,1.27
		c11.2,11.33,22.51,22.57,33.76,33.85c0.8,0.8,1.46,1.73,2.14,2.54C465.6,252.85,464.04,253.14,462.72,253.74z"/>
</g>
</svg>
